<svg xmlns="http://www.w3.org/2000/svg" version="1.1" xmlns:xlink="http://www.w3.org/1999/xlink" xmlns:svgjs="http://svgjs.dev/svgjs" width="1440" height="1440" preserveAspectRatio="none" viewBox="0 0 1440 1440"><g mask="url(&quot;#SvgjsMask1369&quot;)" fill="none"><rect width="1440" height="1440" x="0" y="0" fill="url(&quot;#SvgjsLinearGradient1370&quot;)"></rect><path d="M144.27 1263.91a40.1 40.1 0 1 0-54.89-58.48z" stroke="#d3b714"></path><path d="M1279.02 597.84 a2.36 2.36 0 1 0 4.72 0 a2.36 2.36 0 1 0 -4.72 0z" fill="#e73635"></path><path d="M709.98 850.42L738.04 850.42L738.04 878.48L709.98 878.48z" fill="#e73635"></path><path d="M1369.87 131.86L1413.67 131.86L1413.67 175.66L1369.87 175.66z" stroke="#e73635"></path><path d="M202.76 980.12 a44.24 44.24 0 1 0 88.48 0 a44.24 44.24 0 1 0 -88.48 0z" stroke="#037b0b"></path><path d="M141.3 1308.88L168.36 1308.88L168.36 1340.92L141.3 1340.92z" fill="#037b0b"></path><path d="M1022.57 634.47 a134.85 134.85 0 1 0 269.7 0 a134.85 134.85 0 1 0 -269.7 0z" fill="#e73635"></path><path d="M1173.73 747.11L1246.4 747.11L1246.4 819.78L1173.73 819.78z" stroke="#d3b714"></path><path d="M-80.45 68.96 a119.3 119.3 0 1 0 238.6 0 a119.3 119.3 0 1 0 -238.6 0z" fill="#037b0b"></path><path d="M138.22 327L265.97 327L265.97 358.67L138.22 358.67z" stroke="#037b0b"></path><path d="M734.9 923.49L763.12 923.49L763.12 951.71L734.9 951.71z" fill="#e73635"></path><path d="M290.42 1412.35a139.78 139.78 0 1 0 144.81-239.14z" stroke="#d3b714"></path><path d="M37.16 1015.41L95.19 1015.41L95.19 1132L37.16 1132z" fill="#e73635"></path></g><defs><mask id="SvgjsMask1369"><rect width="1440" height="1440" fill="#ffffff"></rect></mask><linearGradient x1="0%" y1="0%" x2="100%" y2="100%" gradientUnits="userSpaceOnUse" id="SvgjsLinearGradient1370"><stop stop-color="#0e2a47" offset="0"></stop><stop stop-color="rgba(78, 78, 78, 1)" offset="1"></stop></linearGradient></defs></svg>