<svg xmlns="http://www.w3.org/2000/svg" version="1.1" xmlns:xlink="http://www.w3.org/1999/xlink" xmlns:svgjs="http://svgjs.dev/svgjs" width="1740" height="1440" preserveAspectRatio="none" viewBox="0 0 1740 1440"><g mask="url(&quot;#SvgjsMask1377&quot;)" fill="none"><rect width="1740" height="1440" x="0" y="0" fill="url(&quot;#SvgjsLinearGradient1378&quot;)"></rect><path d="M1733.19 1405.04L1806.76 1405.04L1806.76 1478.61L1733.19 1478.61z" stroke="#e73635"></path><path d="M481.7 242.73L503.12 242.73L503.12 330.44L481.7 330.44z" fill="#d3b714"></path><path d="M1395.3 980.39L1479.61 980.39L1479.61 1064.7L1395.3 1064.7z" stroke="#037b0b"></path><path d="M327.31 200.04a73.8 73.8 0 1 0-135.9-57.61z" stroke="#e73635"></path><path d="M122.61 974.09a133.06 133.06 0 1 0 247.58-97.6z" stroke="#e73635"></path><path d="M1488.35 518.61 a45.97 45.97 0 1 0 91.94 0 a45.97 45.97 0 1 0 -91.94 0z" stroke="#e73635"></path><path d="M351.95 423.86L403.9 423.86L403.9 471.61L351.95 471.61z" fill="#e73635"></path><path d="M318.2 1022.65L449.62 1022.65L449.62 1154.07L318.2 1154.07z" stroke="#d3b714"></path><path d="M1694.04 748.39L1737.63 748.39L1737.63 791.98L1694.04 791.98z" stroke="#037b0b"></path><path d="M1232.99 1128.93L1320.57 1128.93L1320.57 1244.04L1232.99 1244.04z" stroke="#e73635"></path><path d="M1223.8 723.35 a142.85 142.85 0 1 0 285.7 0 a142.85 142.85 0 1 0 -285.7 0z" fill="#037b0b"></path><path d="M1691.16 832.48L1701.39 832.48L1701.39 836.97L1691.16 836.97z" fill="#e73635"></path><path d="M126.33 298.78L168.62 298.78L168.62 427.18L126.33 427.18z" stroke="#037b0b"></path><path d="M1315.43 1126.89a66.72 66.72 0 1 0-61.87 118.23z" fill="#d3b714"></path><path d="M1059.15 1364.64L1153.9 1364.64L1153.9 1409.14L1059.15 1409.14z" fill="#e73635"></path><path d="M-50.33 459.56a74.46 74.46 0 1 0 145.74-30.58z" stroke="#d3b714"></path></g><defs><mask id="SvgjsMask1377"><rect width="1740" height="1440" fill="#ffffff"></rect></mask><linearGradient x1="4.31%" y1="-5.21%" x2="95.69%" y2="105.21%" gradientUnits="userSpaceOnUse" id="SvgjsLinearGradient1378"><stop stop-color="#0e2a47" offset="0"></stop><stop stop-color="rgba(78, 78, 78, 1)" offset="1"></stop></linearGradient></defs></svg>